<svg width="85" height="24" viewBox="0 0 85 24" fill="none" xmlns="http://www.w3.org/2000/svg">
<path d="M0 3.24211C0 1.45154 1.5052 0 3.36196 0H79.0061C80.8629 0 82.3681 1.45154 82.3681 3.24211V17.0211C82.3681 18.8116 80.8629 20.2632 79.0061 20.2632H3.36196C1.5052 20.2632 0 18.8116 0 17.0211V3.24211Z" fill="#F05829"/>
<path d="M0 3.24211C0 1.45154 1.5052 0 3.36196 0H79.0061C80.8629 0 82.3681 1.45154 82.3681 3.24211V17.0211C82.3681 18.8116 80.8629 20.2632 79.0061 20.2632H3.36196C1.5052 20.2632 0 18.8116 0 17.0211V3.24211Z" fill="#F05829"/>
<path d="M84.2103 23.4501C82.3368 23.4501 79.9602 21.4682 79.0061 20.4773C79.7 18.6756 81.1919 15.991 81.6082 19.6665C81.928 22.4897 83.7217 23.2719 84.5137 23.4555C84.9457 23.5556 85.0796 23.4775 84.5137 23.4555C84.4287 23.4521 84.3281 23.4501 84.2103 23.4501Z" fill="#F05829"/>
<path d="M20.4945 13.0138C20.1852 13.0138 19.9073 12.9619 19.6608 12.8582C19.4187 12.7501 19.2282 12.6031 19.0892 12.4173C18.9503 12.2271 18.8785 12.0088 18.8741 11.7624H19.5263C19.5487 11.9742 19.6384 12.1536 19.7952 12.3005C19.9566 12.4432 20.1897 12.5145 20.4945 12.5145C20.7859 12.5145 21.0145 12.4454 21.1804 12.307C21.3507 12.1644 21.4359 11.9828 21.4359 11.7624C21.4359 11.5894 21.3866 11.449 21.2879 11.3409C21.1893 11.2328 21.0661 11.1507 20.9181 11.0945C20.7702 11.0383 20.5707 10.9778 20.3197 10.9129C20.0104 10.8351 19.7616 10.7573 19.5733 10.6795C19.3896 10.6017 19.2304 10.4806 19.096 10.3164C18.966 10.1478 18.901 9.923 18.901 9.64202C18.901 9.39562 18.966 9.17732 19.096 8.98711C19.2259 8.79691 19.4075 8.64994 19.6406 8.54619C19.8782 8.44244 20.1494 8.39057 20.4542 8.39057C20.8935 8.39057 21.2521 8.49648 21.53 8.70829C21.8124 8.92011 21.9716 9.2011 22.0074 9.55124H21.335C21.3126 9.37833 21.2185 9.22703 21.0526 9.09735C20.8868 8.96334 20.6671 8.89634 20.3937 8.89634C20.1382 8.89634 19.9297 8.96118 19.7683 9.09086C19.607 9.21622 19.5263 9.39346 19.5263 9.62257C19.5263 9.78683 19.5733 9.92084 19.6675 10.0246C19.7661 10.1283 19.8849 10.2083 20.0239 10.2645C20.1673 10.3164 20.3668 10.3769 20.6223 10.4461C20.9316 10.5282 21.1804 10.6103 21.3686 10.6925C21.5569 10.7703 21.7183 10.8935 21.8528 11.0621C21.9872 11.2263 22.0545 11.4511 22.0545 11.7364C22.0545 11.9569 21.994 12.1644 21.8729 12.3589C21.7519 12.5534 21.5726 12.7112 21.335 12.8323C21.0974 12.9533 20.8173 13.0138 20.4945 13.0138Z" fill="white"/>
<path d="M26.2227 9.41507V12.9684H25.6109V12.4432C25.4943 12.6248 25.3307 12.7674 25.12 12.8712C24.9138 12.9706 24.6852 13.0203 24.4342 13.0203C24.1473 13.0203 23.8895 12.9641 23.6609 12.8517C23.4323 12.735 23.2508 12.5621 23.1163 12.333C22.9863 12.1039 22.9213 11.825 22.9213 11.4965V9.41507H23.5264V11.4187C23.5264 11.7688 23.6183 12.039 23.8021 12.2292C23.9859 12.4151 24.2369 12.508 24.5552 12.508C24.8824 12.508 25.1402 12.4108 25.3285 12.2163C25.5167 12.0217 25.6109 11.7386 25.6109 11.3668V9.41507H26.2227Z" fill="white"/>
<path d="M29.3134 12.9684L27.8677 11.3992V12.9684H27.2559V8.1701H27.8677V10.9907L29.2865 9.41507H30.1404L28.4056 11.1853L30.1471 12.9684H29.3134Z" fill="white"/>
<path d="M30.4877 11.1788C30.4877 10.8157 30.5639 10.4979 30.7163 10.2256C30.8687 9.94894 31.0772 9.73496 31.3416 9.58366C31.6106 9.43236 31.9087 9.35672 32.2359 9.35672C32.5587 9.35672 32.8388 9.42372 33.0764 9.55773C33.314 9.69173 33.4911 9.86032 33.6076 10.0635V9.41507H34.2262V12.9684H33.6076V12.307C33.4866 12.5145 33.305 12.6874 33.063 12.8258C32.8254 12.9598 32.5475 13.0268 32.2292 13.0268C31.902 13.0268 31.6061 12.949 31.3416 12.7933C31.0772 12.6377 30.8687 12.4194 30.7163 12.1384C30.5639 11.8575 30.4877 11.5376 30.4877 11.1788ZM33.6076 11.1853C33.6076 10.9172 33.5516 10.6838 33.4395 10.485C33.3274 10.2861 33.175 10.1348 32.9823 10.0311C32.794 9.923 32.5856 9.86897 32.3569 9.86897C32.1283 9.86897 31.9199 9.92084 31.7316 10.0246C31.5434 10.1283 31.3932 10.2796 31.2811 10.4785C31.1691 10.6773 31.113 10.9108 31.113 11.1788C31.113 11.4511 31.1691 11.6889 31.2811 11.892C31.3932 12.0909 31.5434 12.2444 31.7316 12.3524C31.9199 12.4562 32.1283 12.508 32.3569 12.508C32.5856 12.508 32.794 12.4562 32.9823 12.3524C33.175 12.2444 33.3274 12.0909 33.4395 11.892C33.5516 11.6889 33.6076 11.4533 33.6076 11.1853Z" fill="white"/>
<path d="M38.5388 13.0138C38.2295 13.0138 37.9516 12.9619 37.705 12.8582C37.463 12.7501 37.2725 12.6031 37.1335 12.4173C36.9946 12.2271 36.9228 12.0088 36.9184 11.7624H37.5706C37.593 11.9742 37.6826 12.1536 37.8395 12.3005C38.0009 12.4432 38.234 12.5145 38.5388 12.5145C38.8302 12.5145 39.0588 12.4454 39.2247 12.307C39.395 12.1644 39.4802 11.9828 39.4802 11.7624C39.4802 11.5894 39.4309 11.449 39.3322 11.3409C39.2336 11.2328 39.1103 11.1507 38.9624 11.0945C38.8145 11.0383 38.615 10.9778 38.364 10.9129C38.0547 10.8351 37.8059 10.7573 37.6176 10.6795C37.4339 10.6017 37.2747 10.4806 37.1402 10.3164C37.0102 10.1478 36.9452 9.923 36.9452 9.64202C36.9452 9.39562 37.0102 9.17732 37.1402 8.98711C37.2702 8.79691 37.4518 8.64994 37.6849 8.54619C37.9225 8.44244 38.1937 8.39057 38.4985 8.39057C38.9378 8.39057 39.2964 8.49648 39.5743 8.70829C39.8567 8.92011 40.0158 9.2011 40.0517 9.55124H39.3793C39.3569 9.37833 39.2628 9.22703 39.0969 9.09735C38.931 8.96334 38.7114 8.89634 38.438 8.89634C38.1824 8.89634 37.974 8.96118 37.8126 9.09086C37.6513 9.21622 37.5706 9.39346 37.5706 9.62257C37.5706 9.78683 37.6176 9.92084 37.7118 10.0246C37.8104 10.1283 37.9292 10.2083 38.0681 10.2645C38.2116 10.3164 38.4111 10.3769 38.6666 10.4461C38.9759 10.5282 39.2247 10.6103 39.4129 10.6925C39.6012 10.7703 39.7626 10.8935 39.897 11.0621C40.0315 11.2263 40.0988 11.4511 40.0988 11.7364C40.0988 11.9569 40.0383 12.1644 39.9172 12.3589C39.7962 12.5534 39.6169 12.7112 39.3793 12.8323C39.1417 12.9533 38.8616 13.0138 38.5388 13.0138Z" fill="white"/>
<path d="M40.7706 11.1788C40.7706 10.8157 40.8468 10.4979 40.9992 10.2256C41.1516 9.94894 41.36 9.73496 41.6245 9.58366C41.8935 9.43236 42.1916 9.35672 42.5188 9.35672C42.8415 9.35672 43.1217 9.42372 43.3593 9.55773C43.5969 9.69173 43.7739 9.86032 43.8905 10.0635V9.41507H44.5091V12.9684H43.8905V12.307C43.7695 12.5145 43.5879 12.6874 43.3458 12.8258C43.1083 12.9598 42.8303 13.0268 42.5121 13.0268C42.1848 13.0268 41.889 12.949 41.6245 12.7933C41.36 12.6377 41.1516 12.4194 40.9992 12.1384C40.8468 11.8575 40.7706 11.5376 40.7706 11.1788ZM43.8905 11.1853C43.8905 10.9172 43.8344 10.6838 43.7224 10.485C43.6103 10.2861 43.4579 10.1348 43.2652 10.0311C43.0769 9.923 42.8684 9.86897 42.6398 9.86897C42.4112 9.86897 42.2028 9.92084 42.0145 10.0246C41.8262 10.1283 41.6761 10.2796 41.564 10.4785C41.4519 10.6773 41.3959 10.9108 41.3959 11.1788C41.3959 11.4511 41.4519 11.6889 41.564 11.892C41.6761 12.0909 41.8262 12.2444 42.0145 12.3524C42.2028 12.4562 42.4112 12.508 42.6398 12.508C42.8684 12.508 43.0769 12.4562 43.2652 12.3524C43.4579 12.2444 43.6103 12.0909 43.7224 11.892C43.8344 11.6889 43.8905 11.4533 43.8905 11.1853Z" fill="white"/>
<path d="M45.8591 8.83798C45.7426 8.83798 45.644 8.79907 45.5633 8.72126C45.4826 8.64345 45.4422 8.54835 45.4422 8.43596C45.4422 8.32356 45.4826 8.22846 45.5633 8.15065C45.644 8.07284 45.7426 8.03394 45.8591 8.03394C45.9712 8.03394 46.0653 8.07284 46.1415 8.15065C46.2222 8.22846 46.2626 8.32356 46.2626 8.43596C46.2626 8.54835 46.2222 8.64345 46.1415 8.72126C46.0653 8.79907 45.9712 8.83798 45.8591 8.83798ZM46.155 9.41507V12.9684H45.5431V9.41507H46.155Z" fill="white"/>
<path d="M48.9931 9.35023C49.4414 9.35023 49.8045 9.48208 50.0824 9.74577C50.3603 10.0051 50.4993 10.3812 50.4993 10.874V12.9684H49.8941V10.9583C49.8941 10.6038 49.8022 10.3337 49.6184 10.1478C49.4346 9.95759 49.1836 9.86248 48.8653 9.86248C48.5426 9.86248 48.2849 9.95975 48.0921 10.1543C47.9038 10.3488 47.8097 10.6319 47.8097 11.0037V12.9684H47.1978V9.41507H47.8097V9.92084C47.9307 9.73928 48.0943 9.59879 48.3005 9.49937C48.5112 9.39994 48.7421 9.35023 48.9931 9.35023Z" fill="white"/>
<path d="M52.8032 13.0268C52.5208 13.0268 52.2675 12.9814 52.0434 12.8906C51.8193 12.7955 51.6422 12.6658 51.5122 12.5016C51.3822 12.333 51.3105 12.1406 51.297 11.9245H51.9291C51.947 12.1017 52.0322 12.2465 52.1846 12.3589C52.3415 12.4713 52.5455 12.5275 52.7965 12.5275C53.0296 12.5275 53.2134 12.4778 53.3478 12.3784C53.4823 12.2789 53.5496 12.1536 53.5496 12.0023C53.5496 11.8467 53.4778 11.7321 53.3344 11.6586C53.191 11.5808 52.9691 11.5052 52.6687 11.4317C52.3953 11.3625 52.1712 11.2933 51.9963 11.2242C51.826 11.1507 51.6781 11.0448 51.5526 10.9064C51.4315 10.7638 51.371 10.5779 51.371 10.3488C51.371 10.1672 51.427 10.0008 51.5391 9.84951C51.6512 9.69822 51.8103 9.57934 52.0165 9.49288C52.2227 9.4021 52.458 9.35672 52.7225 9.35672C53.1304 9.35672 53.4599 9.45614 53.7109 9.65499C53.962 9.85384 54.0964 10.1262 54.1144 10.472H53.5025C53.489 10.2861 53.4106 10.137 53.2672 10.0246C53.1282 9.9122 52.9399 9.856 52.7023 9.856C52.4827 9.856 52.3079 9.90139 52.1779 9.99217C52.0479 10.0829 51.9829 10.2018 51.9829 10.3488C51.9829 10.4655 52.021 10.5628 52.0972 10.6406C52.1779 10.7141 52.2765 10.7746 52.3931 10.8221C52.5141 10.8654 52.6799 10.9151 52.8906 10.9713C53.1551 11.0404 53.3703 11.1096 53.5361 11.1788C53.702 11.2436 53.8432 11.343 53.9597 11.4771C54.0807 11.6111 54.1435 11.7861 54.148 12.0023C54.148 12.1968 54.092 12.3719 53.9799 12.5275C53.8678 12.6831 53.7087 12.8063 53.5025 12.8971C53.3008 12.9836 53.0677 13.0268 52.8032 13.0268Z" fill="white"/>
<path d="M56.2086 8.39057C56.6524 8.39057 57.011 8.51161 57.2844 8.75368C57.5579 8.99576 57.6946 9.31997 57.6946 9.72632C57.6946 10.1802 57.5489 10.5174 57.2575 10.7379C56.9662 10.954 56.5717 11.0621 56.0741 11.0621L56.054 11.6781H55.5228L55.4959 10.6536H55.6909C56.1347 10.6536 56.4821 10.5887 56.7331 10.459C56.9841 10.3293 57.1096 10.0851 57.1096 9.72632C57.1096 9.46695 57.0289 9.26161 56.8676 9.11032C56.7062 8.95902 56.4888 8.88337 56.2153 8.88337C55.9374 8.88337 55.7178 8.95686 55.5564 9.10383C55.3995 9.24648 55.3211 9.44317 55.3211 9.69389H54.7428C54.7428 9.43453 54.8033 9.20758 54.9243 9.01305C55.0454 8.8142 55.2157 8.66074 55.4354 8.55267C55.6595 8.4446 55.9172 8.39057 56.2086 8.39057ZM55.785 13.0073C55.6685 13.0073 55.5698 12.9684 55.4892 12.8906C55.4085 12.8128 55.3681 12.7177 55.3681 12.6053C55.3681 12.4929 55.4085 12.3978 55.4892 12.32C55.5698 12.2422 55.6685 12.2033 55.785 12.2033C55.8971 12.2033 55.9912 12.2422 56.0674 12.32C56.1481 12.3978 56.1884 12.4929 56.1884 12.6053C56.1884 12.7177 56.1481 12.8128 56.0674 12.8906C55.9912 12.9684 55.8971 13.0073 55.785 13.0073Z" fill="white"/>
</svg>
