<svg width="83" height="24" viewBox="0 0 83 24" fill="none" xmlns="http://www.w3.org/2000/svg">
<path d="M82.3681 3.24211C82.3681 1.45154 80.8629 0 79.0061 0H5.80854C3.95178 0 2.44654 1.45154 2.44654 3.24211V17.0211C2.44654 18.8116 3.95178 20.2632 5.80854 20.2632H79.0061C80.8629 20.2632 82.3681 18.8116 82.3681 17.0211V3.24211Z" fill="#00A652"/>
<path d="M82.3681 3.24211C82.3681 1.45154 80.8629 0 79.0061 0H5.80854C3.95178 0 2.44654 1.45154 2.44654 3.24211V17.0211C2.44654 18.8116 3.95178 20.2632 5.80854 20.2632H79.0061C80.8629 20.2632 82.3681 18.8116 82.3681 17.0211V3.24211Z" fill="#00A652"/>
<path d="M0.659062 23.4501C2.47692 23.4501 4.78292 21.4682 5.70868 20.4773C5.0354 18.6756 3.58781 15.991 3.18384 19.6665C2.87354 22.4897 1.1332 23.2719 0.364751 23.4554C-0.0544381 23.5556 -0.184407 23.4775 0.364751 23.4554C0.447137 23.4521 0.544789 23.4501 0.659062 23.4501Z" fill="#00A652"/>
<path d="M8.72767 12.2033C8.41837 12.2033 8.14041 12.1514 7.89386 12.0477C7.6518 11.9396 7.46129 11.7926 7.32233 11.6067C7.18337 11.4165 7.11167 11.1982 7.10718 10.9518H7.7594C7.78182 11.1636 7.87149 11.343 8.02839 11.49C8.18976 11.6327 8.42285 11.704 8.72767 11.704C9.01904 11.704 9.2476 11.6348 9.41346 11.4965C9.5838 11.3539 9.66901 11.1723 9.66901 10.9518C9.66901 10.7789 9.61968 10.6384 9.52106 10.5304C9.42244 10.4223 9.29918 10.3402 9.15125 10.284C9.00332 10.2278 8.80383 10.1672 8.5528 10.1024C8.2435 10.0246 7.99473 9.94678 7.80646 9.86897C7.62267 9.79116 7.46352 9.67012 7.32905 9.50585C7.19905 9.33726 7.1341 9.11248 7.1341 8.83149C7.1341 8.58509 7.19905 8.36679 7.32905 8.17659C7.45904 7.98639 7.64063 7.83941 7.87372 7.73566C8.1113 7.63192 8.3825 7.58004 8.68732 7.58004C9.12662 7.58004 9.4852 7.68595 9.76313 7.89777C10.0455 8.10959 10.2047 8.39057 10.2405 8.74072H9.56812C9.54571 8.5678 9.45157 8.4165 9.28571 8.28682C9.11985 8.15281 8.90021 8.08581 8.62677 8.08581C8.37127 8.08581 8.16284 8.15065 8.00147 8.28034C7.8401 8.4057 7.7594 8.58293 7.7594 8.81204C7.7594 8.97631 7.80644 9.11031 7.90058 9.21406C7.9992 9.31781 8.118 9.39778 8.25696 9.45398C8.40041 9.50585 8.5999 9.56637 8.85541 9.63554C9.16471 9.71767 9.41348 9.79981 9.60175 9.88194C9.79002 9.95975 9.9514 10.0829 10.0859 10.2515C10.2204 10.4158 10.2876 10.6406 10.2876 10.9259C10.2876 11.1464 10.2271 11.3539 10.1061 11.5484C9.98505 11.7429 9.8057 11.9007 9.56812 12.0217C9.33054 12.1428 9.05041 12.2033 8.72767 12.2033Z" fill="white"/>
<path d="M14.4559 8.60455V12.1579H13.844V11.6327C13.7275 11.8142 13.5638 11.9569 13.3532 12.0606C13.147 12.1601 12.9183 12.2098 12.6673 12.2098C12.3804 12.2098 12.1227 12.1536 11.894 12.0412C11.6654 11.9245 11.4839 11.7516 11.3494 11.5224C11.2194 11.2933 11.1544 11.0145 11.1544 10.686V8.60455H11.7596V10.6082C11.7596 10.9583 11.8514 11.2285 12.0352 11.4187C12.219 11.6046 12.4701 11.6975 12.7883 11.6975C13.1156 11.6975 13.3733 11.6003 13.5616 11.4057C13.7499 11.2112 13.844 10.9281 13.844 10.5563V8.60455H14.4559Z" fill="white"/>
<path d="M17.5465 12.1579L16.1008 10.5887V12.1579H15.489V7.35958H16.1008V10.1802L17.5196 8.60455H18.3735L16.6388 10.3747L18.3803 12.1579H17.5465Z" fill="white"/>
<path d="M18.7208 10.3683C18.7208 10.0051 18.797 9.68741 18.9494 9.41507C19.1018 9.13841 19.3103 8.92444 19.5748 8.77314C19.8437 8.62184 20.1418 8.54619 20.4691 8.54619C20.7918 8.54619 21.0719 8.61319 21.3095 8.7472C21.5471 8.88121 21.7242 9.0498 21.8407 9.25297V8.60455H22.4593V12.1579H21.8407V11.4965C21.7197 11.704 21.5381 11.8769 21.2961 12.0152C21.0585 12.1493 20.7806 12.2163 20.4623 12.2163C20.1351 12.2163 19.8392 12.1384 19.5748 11.9828C19.3103 11.8272 19.1018 11.6089 18.9494 11.3279C18.797 11.0469 18.7208 10.727 18.7208 10.3683ZM21.8407 10.3747C21.8407 10.1067 21.7847 9.87329 21.6726 9.67444C21.5605 9.47559 21.4081 9.32429 21.2154 9.22055C21.0271 9.11248 20.8187 9.05844 20.5901 9.05844C20.3615 9.05844 20.153 9.11031 19.9647 9.21406C19.7765 9.31781 19.6263 9.46911 19.5142 9.66796C19.4022 9.86681 19.3461 10.1002 19.3461 10.3683C19.3461 10.6406 19.4022 10.8783 19.5142 11.0815C19.6263 11.2804 19.7765 11.4338 19.9647 11.5419C20.153 11.6456 20.3615 11.6975 20.5901 11.6975C20.8187 11.6975 21.0271 11.6456 21.2154 11.5419C21.4081 11.4338 21.5605 11.2804 21.6726 11.0815C21.7847 10.8783 21.8407 10.6428 21.8407 10.3747Z" fill="white"/>
<path d="M28.6479 10.2451C28.6479 10.3574 28.6412 10.4763 28.6278 10.6017H25.6827C25.7051 10.9518 25.8284 11.2263 26.0525 11.4252C26.2811 11.6197 26.5568 11.717 26.8795 11.717C27.144 11.717 27.3636 11.6586 27.5385 11.5419C27.7178 11.4209 27.8433 11.2609 27.915 11.0621H28.5739C28.4753 11.4036 28.2781 11.6824 27.9822 11.8985C27.6864 12.1103 27.3188 12.2163 26.8795 12.2163C26.5299 12.2163 26.2161 12.1406 25.9382 11.9893C25.6647 11.838 25.4496 11.624 25.2927 11.3474C25.1358 11.0664 25.0573 10.7422 25.0573 10.3747C25.0573 10.0073 25.1335 9.68525 25.286 9.40859C25.4384 9.13193 25.6513 8.92012 25.9247 8.77314C26.2027 8.62184 26.5209 8.54619 26.8795 8.54619C27.2292 8.54619 27.5385 8.61968 27.8074 8.76665C28.0764 8.91363 28.2826 9.1168 28.426 9.37617C28.574 9.63122 28.6479 9.92084 28.6479 10.2451ZM28.0159 10.1219C28.0159 9.89707 27.9643 9.7047 27.8612 9.54476C27.7581 9.38049 27.6169 9.25729 27.4376 9.17516C27.2628 9.0887 27.0678 9.04548 26.8526 9.04548C26.5433 9.04548 26.2789 9.14058 26.0592 9.33078C25.844 9.52098 25.7208 9.78467 25.6894 10.1219H28.0159Z" fill="white"/>
<path d="M30.76 12.2163C30.4776 12.2163 30.2243 12.1709 30.0002 12.0801C29.7761 11.985 29.599 11.8553 29.469 11.691C29.339 11.5224 29.2673 11.3301 29.2538 11.1139H29.8859C29.9039 11.2912 29.989 11.436 30.1414 11.5484C30.2983 11.6608 30.5023 11.717 30.7533 11.717C30.9864 11.717 31.1702 11.6673 31.3046 11.5678C31.4391 11.4684 31.5064 11.343 31.5064 11.1917C31.5064 11.0361 31.4346 10.9216 31.2912 10.8481C31.1478 10.7703 30.9259 10.6946 30.6256 10.6211C30.3521 10.552 30.128 10.4828 29.9531 10.4136C29.7828 10.3402 29.6349 10.2342 29.5093 10.0959C29.3883 9.95326 29.3278 9.76739 29.3278 9.53828C29.3278 9.35672 29.3838 9.19029 29.4959 9.03899C29.608 8.88769 29.7671 8.76881 29.9733 8.68236C30.1795 8.59158 30.4149 8.54619 30.6793 8.54619C31.0872 8.54619 31.4167 8.64561 31.6677 8.84446C31.9188 9.04331 32.0532 9.31565 32.0712 9.66147H31.4593C31.4458 9.47559 31.3674 9.32645 31.2239 9.21406C31.085 9.10167 30.8967 9.04548 30.6591 9.04548C30.4395 9.04548 30.2647 9.09086 30.1347 9.18164C30.0047 9.27242 29.9397 9.3913 29.9397 9.53828C29.9397 9.65499 29.9778 9.75225 30.054 9.83006C30.1347 9.90355 30.2333 9.96407 30.3499 10.0116C30.4709 10.0549 30.6367 10.1046 30.8474 10.1608C31.1119 10.2299 31.3271 10.2991 31.4929 10.3683C31.6588 10.4331 31.8 10.5325 31.9165 10.6665C32.0375 10.8005 32.1003 10.9756 32.1048 11.1917C32.1048 11.3863 32.0488 11.5613 31.9367 11.717C31.8246 11.8726 31.6655 11.9958 31.4593 12.0866C31.2576 12.173 31.0245 12.2163 30.76 12.2163Z" fill="white"/>
<path d="M35.0261 12.1579L33.5804 10.5887V12.1579H32.9686V7.35958H33.5804V10.1802L34.9992 8.60455H35.8532L34.1184 10.3747L35.8599 12.1579H35.0261Z" fill="white"/>
<path d="M37.0409 9.25945C37.1619 9.05628 37.3412 8.88769 37.5788 8.75368C37.8209 8.61536 38.101 8.54619 38.4193 8.54619C38.7465 8.54619 39.0424 8.62184 39.3069 8.77314C39.5758 8.92444 39.7865 9.13841 39.9389 9.41507C40.0913 9.68741 40.1675 10.0051 40.1675 10.3683C40.1675 10.727 40.0913 11.0469 39.9389 11.3279C39.7865 11.6089 39.5758 11.8272 39.3069 11.9828C39.0424 12.1384 38.7465 12.2163 38.4193 12.2163C38.1055 12.2163 37.8276 12.1493 37.5855 12.0152C37.3479 11.8769 37.1664 11.7062 37.0409 11.503V13.8438H36.429V8.60455H37.0409V9.25945ZM39.5422 10.3683C39.5422 10.1002 39.4862 9.86681 39.3741 9.66796C39.262 9.46911 39.1096 9.31781 38.9169 9.21406C38.7286 9.11031 38.5202 9.05844 38.2916 9.05844C38.0674 9.05844 37.859 9.11248 37.6662 9.22055C37.4779 9.32429 37.3255 9.47776 37.209 9.68093C37.0969 9.87978 37.0409 10.111 37.0409 10.3747C37.0409 10.6428 37.0969 10.8783 37.209 11.0815C37.3255 11.2804 37.4779 11.4338 37.6662 11.5419C37.859 11.6456 38.0674 11.6975 38.2916 11.6975C38.5202 11.6975 38.7286 11.6456 38.9169 11.5419C39.1096 11.4338 39.262 11.2804 39.3741 11.0815C39.4862 10.8783 39.5422 10.6406 39.5422 10.3683Z" fill="white"/>
<path d="M44.3349 10.2451C44.3349 10.3574 44.3281 10.4763 44.3147 10.6017H41.3696C41.392 10.9518 41.5153 11.2263 41.7394 11.4252C41.9681 11.6197 42.2437 11.717 42.5665 11.717C42.8309 11.717 43.0506 11.6586 43.2254 11.5419C43.4047 11.4209 43.5303 11.2609 43.602 11.0621H44.2609C44.1623 11.4036 43.965 11.6824 43.6692 11.8985C43.3733 12.1103 43.0058 12.2163 42.5665 12.2163C42.2168 12.2163 41.903 12.1406 41.6251 11.9893C41.3517 11.838 41.1365 11.624 40.9796 11.3474C40.8227 11.0664 40.7443 10.7422 40.7443 10.3747C40.7443 10.0073 40.8205 9.68525 40.9729 9.40859C41.1253 9.13193 41.3383 8.92012 41.6117 8.77314C41.8896 8.62184 42.2079 8.54619 42.5665 8.54619C42.9161 8.54619 43.2254 8.61968 43.4944 8.76665C43.7633 8.91363 43.9695 9.1168 44.113 9.37617C44.2609 9.63122 44.3349 9.92084 44.3349 10.2451ZM43.7028 10.1219C43.7028 9.89707 43.6513 9.7047 43.5482 9.54476C43.4451 9.38049 43.3039 9.25729 43.1246 9.17516C42.9498 9.0887 42.7548 9.04548 42.5396 9.04548C42.2303 9.04548 41.9658 9.14058 41.7462 9.33078C41.531 9.52098 41.4077 9.78467 41.3763 10.1219H43.7028Z" fill="white"/>
<path d="M45.7544 9.18164C45.862 8.97847 46.0144 8.82069 46.2117 8.70829C46.4134 8.5959 46.6577 8.5397 46.9446 8.5397V9.14922H46.7832C46.0974 9.14922 45.7544 9.50802 45.7544 10.2256V12.1579H45.1425V8.60455H45.7544V9.18164Z" fill="white"/>
<path d="M47.9669 8.02745C47.8504 8.02745 47.7517 7.98855 47.671 7.91074C47.5903 7.83293 47.5501 7.73782 47.5501 7.62543C47.5501 7.51304 47.5903 7.41794 47.671 7.34013C47.7517 7.26232 47.8504 7.22341 47.9669 7.22341C48.079 7.22341 48.1731 7.26232 48.2493 7.34013C48.33 7.41794 48.3704 7.51304 48.3704 7.62543C48.3704 7.73782 48.33 7.83293 48.2493 7.91074C48.1731 7.98855 48.079 8.02745 47.9669 8.02745ZM48.2628 8.60455V12.1579H47.6509V8.60455H48.2628Z" fill="white"/>
<path d="M53.7366 8.5397C54.0235 8.5397 54.279 8.59806 54.5032 8.71478C54.7273 8.82717 54.9044 8.99792 55.0344 9.22703C55.1644 9.45614 55.2294 9.73496 55.2294 10.0635V12.1579H54.6242V10.1478C54.6242 9.79332 54.5323 9.52315 54.3485 9.33727C54.1692 9.14706 53.925 9.05196 53.6157 9.05196C53.2974 9.05196 53.0441 9.15138 52.8558 9.35023C52.6676 9.54476 52.5734 9.8279 52.5734 10.1997V12.1579H51.9683V10.1478C51.9683 9.79332 51.8764 9.52315 51.6926 9.33727C51.5133 9.14706 51.269 9.05196 50.9597 9.05196C50.6414 9.05196 50.3882 9.15138 50.1999 9.35023C50.0116 9.54476 49.9175 9.8279 49.9175 10.1997V12.1579H49.3056V8.60455H49.9175V9.1168C50.0385 8.93092 50.1999 8.78827 50.4016 8.68884C50.6078 8.58942 50.8341 8.5397 51.0807 8.5397C51.39 8.5397 51.6635 8.60671 51.9011 8.74072C52.1386 8.87472 52.3156 9.07141 52.4322 9.33078C52.5353 9.08006 52.7057 8.88553 52.9432 8.7472C53.1808 8.60887 53.4453 8.5397 53.7366 8.5397Z" fill="white"/>
<path d="M59.595 10.2451C59.595 10.3574 59.5883 10.4763 59.5749 10.6017H56.6298C56.6522 10.9518 56.7755 11.2263 56.9996 11.4252C57.2283 11.6197 57.5039 11.717 57.8267 11.717C58.0911 11.717 58.3108 11.6586 58.4856 11.5419C58.6649 11.4209 58.7904 11.2609 58.8621 11.0621H59.5211C59.4224 11.4036 59.2252 11.6824 58.9294 11.8985C58.6335 12.1103 58.266 12.2163 57.8267 12.2163C57.477 12.2163 57.1632 12.1406 56.8853 11.9893C56.6119 11.838 56.3967 11.624 56.2398 11.3474C56.0829 11.0664 56.0045 10.7422 56.0045 10.3747C56.0045 10.0073 56.0807 9.68525 56.2331 9.40859C56.3855 9.13193 56.5985 8.92012 56.8719 8.77314C57.1498 8.62184 57.4681 8.54619 57.8267 8.54619C58.1763 8.54619 58.4856 8.61968 58.7546 8.76665C59.0235 8.91363 59.2297 9.1168 59.3732 9.37617C59.5211 9.63122 59.595 9.92084 59.595 10.2451ZM58.963 10.1219C58.963 9.89707 58.9115 9.7047 58.8084 9.54476C58.7053 9.38049 58.564 9.25729 58.3847 9.17516C58.2099 9.0887 58.0149 9.04548 57.7997 9.04548C57.4904 9.04548 57.226 9.14058 57.0064 9.33078C56.7912 9.52098 56.6679 9.78467 56.6365 10.1219H58.963Z" fill="white"/>
<path d="M62.198 8.5397C62.6463 8.5397 63.0094 8.67155 63.2873 8.93524C63.5652 9.19461 63.7042 9.5707 63.7042 10.0635V12.1579H63.099V10.1478C63.099 9.79332 63.0071 9.52315 62.8233 9.33727C62.6395 9.14706 62.3885 9.05196 62.0703 9.05196C61.7475 9.05196 61.4898 9.14922 61.297 9.34375C61.1087 9.53827 61.0146 9.82142 61.0146 10.1932V12.1579H60.4027V8.60455H61.0146V9.11031C61.1356 8.92876 61.2992 8.78827 61.5054 8.68884C61.7161 8.58942 61.947 8.5397 62.198 8.5397Z" fill="white"/>
<path d="M65.45 9.09086V11.1853C65.45 11.3582 65.4881 11.4814 65.5643 11.5549C65.6405 11.624 65.7727 11.6586 65.961 11.6586H66.4115V12.1579H65.8602C65.5195 12.1579 65.264 12.0822 65.0936 11.931C64.9233 11.7797 64.8381 11.5311 64.8381 11.1853V9.09086H64.3607V8.60455H64.8381V7.70973H65.45V8.60455H66.4115V9.09086H65.45Z" fill="white"/>
<path d="M66.9243 10.3683C66.9243 10.0051 67.0005 9.68741 67.1529 9.41507C67.3053 9.13841 67.5137 8.92444 67.7782 8.77314C68.0472 8.62184 68.3453 8.54619 68.6725 8.54619C68.9952 8.54619 69.2754 8.61319 69.513 8.7472C69.7506 8.88121 69.9276 9.0498 70.0442 9.25297V8.60455H70.6628V12.1579H70.0442V11.4965C69.9232 11.704 69.7416 11.8769 69.4996 12.0152C69.262 12.1493 68.984 12.2163 68.6658 12.2163C68.3385 12.2163 68.0427 12.1384 67.7782 11.9828C67.5137 11.8272 67.3053 11.6089 67.1529 11.3279C67.0005 11.0469 66.9243 10.727 66.9243 10.3683ZM70.0442 10.3747C70.0442 10.1067 69.9882 9.87329 69.8761 9.67444C69.764 9.47559 69.6116 9.32429 69.4188 9.22055C69.2306 9.11248 69.0221 9.05844 68.7935 9.05844C68.5649 9.05844 68.3565 9.11031 68.1682 9.21406C67.98 9.31781 67.8298 9.46911 67.7177 9.66796C67.6057 9.86681 67.5496 10.1002 67.5496 10.3683C67.5496 10.6406 67.6057 10.8783 67.7177 11.0815C67.8298 11.2804 67.98 11.4338 68.1682 11.5419C68.3565 11.6456 68.5649 11.6975 68.7935 11.6975C69.0221 11.6975 69.2306 11.6456 69.4188 11.5419C69.6116 11.4338 69.764 11.2804 69.8761 11.0815C69.9882 10.8783 70.0442 10.6428 70.0442 10.3747Z" fill="white"/>
<path d="M73.0012 12.2163C72.7188 12.2163 72.4656 12.1709 72.2415 12.0801C72.0173 11.985 71.8403 11.8553 71.7103 11.691C71.5803 11.5224 71.5085 11.3301 71.4951 11.1139H72.1271C72.1451 11.2912 72.2302 11.436 72.3826 11.5484C72.5395 11.6608 72.7435 11.717 72.9945 11.717C73.2276 11.717 73.4114 11.6673 73.5458 11.5678C73.6803 11.4684 73.7476 11.343 73.7476 11.1917C73.7476 11.0361 73.6759 10.9216 73.5324 10.8481C73.389 10.7703 73.1671 10.6946 72.8668 10.6211C72.5933 10.552 72.3692 10.4828 72.1943 10.4136C72.024 10.3402 71.8761 10.2342 71.7506 10.0959C71.6296 9.95326 71.569 9.76739 71.569 9.53828C71.569 9.35672 71.6251 9.19029 71.7371 9.03899C71.8492 8.88769 72.0083 8.76881 72.2145 8.68236C72.4207 8.59158 72.6561 8.54619 72.9205 8.54619C73.3285 8.54619 73.6579 8.64561 73.9089 8.84446C74.16 9.04331 74.2945 9.31565 74.3124 9.66147H73.7005C73.6871 9.47559 73.6087 9.32645 73.4652 9.21406C73.3263 9.10167 73.138 9.04548 72.9004 9.04548C72.6807 9.04548 72.5059 9.09086 72.3759 9.18164C72.2459 9.27242 72.1809 9.3913 72.1809 9.53828C72.1809 9.65499 72.219 9.75225 72.2952 9.83006C72.3759 9.90355 72.4745 9.96407 72.5911 10.0116C72.7121 10.0549 72.8779 10.1046 73.0886 10.1608C73.3531 10.2299 73.5683 10.2991 73.7341 10.3683C73.9 10.4331 74.0412 10.5325 74.1578 10.6665C74.2788 10.8005 74.3415 10.9756 74.346 11.1917C74.346 11.3863 74.29 11.5613 74.1779 11.717C74.0659 11.8726 73.9067 11.9958 73.7005 12.0866C73.4988 12.173 73.2657 12.2163 73.0012 12.2163Z" fill="white"/>
<path d="M75.5258 8.02745C75.4093 8.02745 75.3107 7.98855 75.23 7.91074C75.1493 7.83293 75.109 7.73782 75.109 7.62543C75.109 7.51304 75.1493 7.41794 75.23 7.34013C75.3107 7.26232 75.4093 7.22341 75.5258 7.22341C75.6379 7.22341 75.732 7.26232 75.8082 7.34013C75.8889 7.41794 75.9293 7.51304 75.9293 7.62543C75.9293 7.73782 75.8889 7.83293 75.8082 7.91074C75.732 7.98855 75.6379 8.02745 75.5258 8.02745ZM75.8217 8.60455V12.1579H75.2098V8.60455H75.8217Z" fill="white"/>
<path d="M78.0613 7.58004C78.5051 7.58004 78.8638 7.70108 79.1372 7.94316C79.4107 8.18523 79.5474 8.50945 79.5474 8.91579C79.5474 9.36969 79.4017 9.70686 79.1103 9.92733C78.8189 10.1435 78.4245 10.2515 77.9269 10.2515L77.9067 10.8675H77.3755L77.3486 9.84303H77.5436C77.9874 9.84303 78.3348 9.77819 78.5858 9.64851C78.8368 9.51882 78.9623 9.27458 78.9623 8.91579C78.9623 8.65642 78.8817 8.45109 78.7203 8.29979C78.5589 8.14849 78.3415 8.07284 78.0681 8.07284C77.7901 8.07284 77.5705 8.14633 77.4091 8.2933C77.2522 8.43596 77.1738 8.63265 77.1738 8.88337H76.5955C76.5955 8.624 76.6561 8.39705 76.7771 8.20253C76.8981 8.00368 77.0684 7.85022 77.2881 7.74215C77.5122 7.63408 77.77 7.58004 78.0613 7.58004ZM77.6378 12.1968C77.5212 12.1968 77.4226 12.1579 77.3419 12.0801C77.2612 12.0023 77.2209 11.9072 77.2209 11.7948C77.2209 11.6824 77.2612 11.5873 77.3419 11.5095C77.4226 11.4317 77.5212 11.3928 77.6378 11.3928C77.7498 11.3928 77.844 11.4317 77.9202 11.5095C78.0009 11.5873 78.0412 11.6824 78.0412 11.7948C78.0412 11.9072 78.0009 12.0023 77.9202 12.0801C77.844 12.1579 77.7498 12.1968 77.6378 12.1968Z" fill="white"/>
</svg>
